<?xml version="1.0" standalone="no"?>
<!DOCTYPE svg PUBLIC "-//W3C//DTD SVG 20010904//EN"
 "http://www.w3.org/TR/2001/REC-SVG-20010904/DTD/svg10.dtd">
<svg version="1.0" xmlns="http://www.w3.org/2000/svg"
 width="512.000000pt" height="512.000000pt" viewBox="0 0 512.000000 512.000000"
 preserveAspectRatio="xMidYMid meet">

<g transform="translate(0.000000,512.000000) scale(0.100000,-0.100000)"
fill="#000000" stroke="none">
<path d="M1615 4233 c-63 -7 -160 -40 -243 -83 -66 -34 -114 -76 -327 -280
l-250 -241 -11 50 c-28 121 -79 156 -229 155 -151 0 -275 -44 -328 -115 -27
-37 -32 -105 -12 -153 33 -77 155 -173 269 -210 16 -6 -7 -33 -136 -164 -168
-170 -220 -245 -279 -397 -63 -161 -69 -218 -69 -645 0 -424 6 -475 60 -586
16 -33 45 -80 63 -105 l34 -44 5 -161 c4 -138 7 -167 26 -205 30 -62 77 -107
142 -138 54 -26 59 -26 280 -26 215 0 227 1 277 24 57 25 127 94 148 144 7 18
16 62 20 100 l7 67 1498 0 1498 0 7 -67 c4 -38 13 -82 20 -100 21 -50 91 -119
148 -144 50 -23 62 -24 277 -24 221 0 226 0 280 26 65 31 112 76 142 138 19
38 22 67 26 205 l5 161 34 44 c18 25 47 72 63 105 54 111 60 162 60 586 0 427
-6 484 -69 645 -59 152 -111 227 -279 397 -129 131 -152 158 -136 164 114 37
236 133 269 210 63 149 -87 268 -340 268 -150 1 -201 -34 -229 -155 l-11 -50
-250 241 c-266 256 -310 288 -466 342 l-64 22 -945 2 c-520 0 -963 -1 -985 -3z
m1886 -273 c120 -22 154 -49 489 -373 l313 -302 -872 -3 c-479 -1 -1263 -1
-1742 0 l-872 3 313 302 c329 319 370 350 480 372 65 13 1824 13 1891 1z
m-2925 -1111 c139 -42 368 -179 482 -288 211 -202 75 -290 -430 -279 -176 4
-198 6 -246 27 -65 29 -134 104 -156 168 -56 163 40 344 201 382 58 14 76 13
149 -10z m4169 -8 c128 -57 197 -224 149 -364 -22 -64 -91 -139 -156 -168 -48
-21 -70 -23 -246 -27 -506 -11 -641 77 -430 279 113 107 329 238 472 285 80
27 142 25 211 -5z m-1015 -398 c-1 -165 -99 -350 -221 -415 l-44 -23 -905 0
c-870 0 -906 1 -940 19 -62 34 -98 67 -135 122 -48 72 -86 182 -92 272 l-6 72
1172 0 1171 0 0 -47z m-2615 -720 c94 -108 172 -200 173 -204 2 -5 -148 -9
-333 -9 l-336 0 -74 31 c-126 52 -205 143 -205 235 0 21 11 63 25 92 l24 52
278 0 278 -1 170 -196z m3640 145 c62 -133 -5 -255 -180 -327 l-74 -31 -336 0
c-185 0 -335 4 -333 8 2 5 80 97 173 205 l170 196 278 0 278 1 24 -52z m-1120
-105 c-13 -71 -47 -133 -96 -177 -89 -80 -38 -76 -979 -76 -941 0 -890 -4
-979 76 -49 44 -83 106 -96 177 l-7 37 1082 0 1082 0 -7 -37z"/>
</g>
</svg>
